<?xml version="1.0" standalone="no"?>
<!DOCTYPE svg PUBLIC "-//W3C//DTD SVG 20010904//EN"
 "http://www.w3.org/TR/2001/REC-SVG-20010904/DTD/svg10.dtd">
<svg version="1.0" xmlns="http://www.w3.org/2000/svg"
 width="225.000000pt" height="225.000000pt" viewBox="0 0 225.000000 225.000000"
 preserveAspectRatio="xMidYMid meet">
<metadata>
Created by potrace 1.11, written by Peter Selinger 2001-2013
</metadata>
<g transform="translate(0.000000,225.000000) scale(0.100000,-0.100000)"
fill="#000000" stroke="none">
<path d="M0 1125 l0 -1125 1125 0 1125 0 0 1125 0 1125 -1125 0 -1125 0 0
-1125z m730 417 c0 -10 -63 -191 -140 -402 -77 -211 -140 -386 -140 -387 0 -2
-7 -3 -15 -3 -8 0 -15 6 -15 13 0 13 273 767 284 786 11 17 26 13 26 -7z m247
-382 c98 -269 140 -397 133 -404 -6 -6 -13 -6 -19 0 -4 5 -66 170 -137 366
-71 197 -131 358 -134 358 -3 0 -38 -93 -79 -205 -40 -113 -78 -208 -82 -211
-29 -18 -12 53 61 254 93 256 88 244 103 239 6 -2 75 -180 154 -397z m311 7
l2 -387 130 0 c110 0 130 -2 130 -15 0 -13 -21 -15 -147 -13 l-148 3 -3 390
c-1 214 0 396 3 403 3 8 11 12 18 10 9 -4 13 -93 15 -391z m322 369 c87 -45
133 -118 134 -211 0 -60 -20 -123 -39 -117 -6 2 -9 13 -7 25 1 12 5 43 8 68
11 83 -30 160 -107 199 -30 16 -59 20 -129 20 l-90 0 0 -321 0 -321 100 4 c93
3 101 5 127 31 39 39 40 105 1 144 -24 23 -38 28 -103 32 -97 8 -102 25 -8 29
113 5 173 -42 173 -133 0 -52 -17 -84 -59 -112 -30 -21 -46 -23 -147 -23
l-114 0 0 348 c0 192 3 352 8 356 4 4 54 6 112 4 76 -3 115 -9 140 -22z m-4
-118 c18 -21 36 -49 40 -64 9 -37 -7 -98 -28 -102 -14 -3 -16 5 -11 55 5 53 3
60 -21 84 -28 28 -64 39 -127 39 -37 0 -48 8 -31 24 4 4 38 6 76 4 64 -4 70
-6 102 -40z m-686 -383 c60 -165 95 -274 89 -279 -6 -6 -12 -6 -18 0 -17 16
-202 534 -196 545 4 5 11 9 17 7 6 -2 54 -125 108 -273z m736 149 c30 -18 60
-48 79 -78 26 -43 30 -59 30 -121 0 -62 -4 -78 -30 -121 -37 -59 -118 -115
-138 -95 -9 10 -8 15 7 25 99 60 126 101 126 189 0 131 -74 197 -219 197 -77
0 -100 8 -85 31 4 8 36 10 94 7 76 -4 95 -8 136 -34z m-811 -174 c0 -12 -20
-16 -104 -20 l-104 -5 -42 -115 c-40 -108 -56 -133 -69 -112 -5 9 39 143 78
237 l15 36 113 -3 c93 -2 113 -6 113 -18z m38 -87 c4 -3 2 -12 -4 -20 -8 -9
-41 -13 -115 -13 -98 0 -123 7 -109 30 7 11 218 14 228 3z"/>
</g>
</svg>
